<svg width="512.000000" height="512.000000" version="1.1" baseProfile="full" xmlns="http://www.w3.org/2000/svg">
<rect width="512" height="512" x="0" y="0" fill="#000000"/>
<g fill="none" stroke="#990022"  stroke-width="8.000000" fill-opacity="1.0"><path d="M716.000000, 256.000000L 922.512512 434.496704 L 654.432739 485.894257 L 744.097900 743.709412 L 486.211426 654.249573 L 435.027435 922.370178 L 256.366272 715.999878 L 78.034187 922.654480 L 26.423048 654.615662 L -231.320541 744.486145 L -142.066055 486.528564 L -410.227386 435.557983 L -203.999420 256.732574 L -410.795929 78.564926 L -142.798401 26.740671 L -232.874069 -230.931366 L 25.154680 -141.882446 L 75.911499 -410.084167 L 254.901093 -203.998688 L 432.903992 -410.937012 L 484.941650 -142.980850 L 742.541870 -233.261688 L 653.698425 24.837788 L 921.940613 75.381248 L 716.000000 256.000000 Z
" /></g><g fill="none" stroke="#888822"  stroke-width="8.000000" fill-opacity="1.0"><path d="M685.599976, 256.000000L 878.464783 422.700409 L 628.101501 470.701263 L 711.841003 711.478149 L 470.997467 627.930420 L 423.196045 878.331787 L 256.342072 685.599854 L 89.795403 878.597290 L 41.595089 628.272339 L -199.115036 712.203552 L -115.759079 471.293640 L -366.198456 423.691559 L -173.599457 256.684174 L -366.729431 90.291061 L -116.443031 41.891720 L -200.565887 -198.751572 L 40.410542 -115.587608 L 87.812988 -366.064728 L 254.973709 -173.598785 L 421.212952 -366.861206 L 469.811615 -116.613426 L 710.387817 -200.927902 L 627.415771 40.114594 L 877.930603 87.317787 L 685.599976 256.000000 Z
" /></g><g fill="none" stroke="#9C8066"  stroke-width="8.000000" fill-opacity="1.0"><path d="M655.200012, 256.000000L 834.416931 410.904083 L 601.770325 455.508240 L 679.584045 679.246948 L 455.783478 601.611328 L 411.364655 834.293396 L 256.317871 655.199890 L 101.556625 834.540100 L 56.767128 601.929077 L -166.909470 679.920959 L -89.452110 456.058716 L -322.169495 411.825104 L -143.199509 256.635742 L -322.662872 102.017220 L -90.087662 57.042767 L -168.257660 -166.571732 L 55.666405 -89.292778 L 99.714500 -322.045227 L 255.046341 -143.198868 L 409.521881 -322.785339 L 454.681549 -90.246002 L 678.233704 -168.594055 L 601.133057 55.391396 L 833.920593 99.254341 L 655.200012 256.000000 Z
" /></g><g fill="none" stroke="#990022"  stroke-width="8.000000" fill-opacity="1.0"><path d="M624.799988, 256.000000L 790.369202 399.107788 L 575.439087 440.315216 L 647.327209 647.015686 L 440.569489 575.292236 L 399.533295 790.255066 L 256.293671 624.799866 L 113.317841 790.482971 L 71.939178 575.585754 L -134.703964 647.638428 L -63.145119 440.823761 L -278.140564 399.958649 L -112.799522 256.587341 L -278.596405 113.743355 L -63.732269 72.193832 L -135.949478 -134.391937 L 70.922279 -62.997913 L 111.615997 -278.025757 L 255.118958 -112.798935 L 397.830841 -278.709503 L 439.551483 -63.878548 L 646.079651 -136.260254 L 574.850403 70.668213 L 789.910645 111.190872 L 624.799988 256.000000 Z
" /></g><g fill="none" stroke="#888822"  stroke-width="8.000000" fill-opacity="1.0"><path d="M594.400024, 256.000000L 746.321411 387.311493 L 549.107910 425.122223 L 615.070251 614.784485 L 425.355530 548.973145 L 387.701904 746.216675 L 256.269470 594.399902 L 125.079063 746.425781 L 87.111221 549.242432 L -102.498421 615.355896 L -36.838150 425.588837 L -234.111633 388.092224 L -82.399567 256.538910 L -234.529877 125.469498 L -37.376900 87.344879 L -103.641273 -102.212120 L 86.178139 -36.703079 L 123.517502 -234.006271 L 255.191589 -82.399025 L 386.139801 -234.633667 L 424.421417 -37.511124 L 613.925598 -103.926437 L 548.567688 85.945023 L 745.900635 123.127419 L 594.400024 256.000000 Z
" /></g><g fill="none" stroke="#9C8066"  stroke-width="8.000000" fill-opacity="1.0"><path d="M564.000000, 256.000000L 702.273621 375.515167 L 522.776672 409.929199 L 582.813354 582.553223 L 410.141571 522.654053 L 375.870544 702.178284 L 256.245239 563.999878 L 136.840286 702.368652 L 102.283257 522.899170 L -70.292885 583.073303 L -10.531181 410.353912 L -190.082687 376.225769 L -51.999611 256.490509 L -190.463348 137.195648 L -11.021534 102.495926 L -71.333069 -70.032303 L 101.434006 -10.408244 L 135.419006 -189.986801 L 255.264206 -51.999123 L 374.448761 -190.557831 L 409.291382 -11.143700 L 581.771484 -71.592613 L 522.285034 101.221825 L 701.890625 135.063965 L 564.000000 256.000000 Z
" /></g><g fill="none" stroke="#990022"  stroke-width="8.000000" fill-opacity="1.0"><path d="M533.599976, 256.000000L 658.225830 363.718872 L 496.445496 394.736206 L 550.556458 550.322021 L 394.927582 496.334961 L 364.039154 658.139893 L 256.221039 533.599915 L 148.601501 658.311462 L 117.455299 496.555878 L -38.087349 550.790771 L 15.775786 395.118988 L -146.053741 364.359344 L -21.599653 256.442078 L -146.396835 148.921799 L 15.333833 117.646973 L -39.024864 -37.852486 L 116.689865 15.886590 L 147.320511 -145.967316 L 255.336838 -21.599215 L 362.757721 -146.481979 L 394.161316 15.223725 L 549.617432 -39.258793 L 496.002350 116.498627 L 657.880676 147.000504 L 533.599976 256.000000 Z
" /></g><g fill="none" stroke="#888822"  stroke-width="8.000000" fill-opacity="1.0"><path d="M503.200012, 256.000000L 614.178040 351.922577 L 470.114288 379.543182 L 518.299561 518.090759 L 379.713623 470.015839 L 352.207764 614.101501 L 256.196838 503.199921 L 160.362717 614.254272 L 132.627350 470.212585 L -5.881814 518.508179 L 42.082767 379.884033 L -102.024796 352.492889 L 8.800317 256.393677 L -102.330315 160.647934 L 41.689213 132.798035 L -6.716661 -5.672671 L 131.945740 42.181438 L 159.222000 -101.947830 L 255.409454 8.800709 L 351.066650 -102.406143 L 379.031250 41.591164 L 517.463379 -6.924972 L 469.719666 131.775436 L 613.870667 158.937057 L 503.200012 256.000000 Z
" /></g><g fill="none" stroke="#9C8066"  stroke-width="8.000000" fill-opacity="1.0"><path d="M472.799988, 256.000000L 570.130249 340.126282 L 443.783081 364.350159 L 486.042664 485.859558 L 364.499634 443.696747 L 340.376404 570.063171 L 256.172638 472.799927 L 172.123932 570.197144 L 147.799377 443.869293 L 26.323700 486.225647 L 68.389740 364.649109 L -57.995876 340.626465 L 39.200272 256.345276 L -58.263824 172.374069 L 68.044579 147.949081 L 25.591520 26.507124 L 147.201599 68.476273 L 171.123505 -57.928379 L 255.482071 39.200615 L 339.375610 -58.330326 L 363.901184 67.958588 L 485.309296 25.408827 L 443.436981 147.052246 L 569.860718 170.873596 L 472.799988 256.000000 Z
" /></g><g fill="none" stroke="#990022"  stroke-width="8.000000" fill-opacity="1.0"><path d="M442.399994, 256.000000L 526.082458 328.329956 L 417.451874 349.157135 L 453.785767 453.628326 L 349.285675 417.377625 L 328.545013 526.024780 L 256.148438 442.399933 L 183.885162 526.140015 L 162.971436 417.525970 L 58.529236 453.943085 L 94.696716 349.414185 L -13.966929 328.760010 L 69.600243 256.296844 L -14.197308 184.100220 L 94.399963 163.100143 L 57.899723 58.686939 L 162.457458 94.771118 L 183.025009 -13.908898 L 255.554703 69.600540 L 327.684570 -14.254482 L 348.771149 94.326027 L 453.155243 57.742649 L 417.154297 162.329056 L 525.850708 182.810135 L 442.399994 256.000000 Z
" /></g><g fill="none" stroke="#888822"  stroke-width="8.000000" fill-opacity="1.0"><path d="M412.000000, 256.000000L 482.034668 316.533661 L 391.120667 333.964142 L 421.528839 421.397095 L 334.071716 391.058533 L 316.713654 481.986389 L 256.124207 411.999939 L 195.646378 482.082825 L 178.143463 391.182678 L 90.734772 421.660522 L 121.003685 334.179260 L 30.062017 316.893585 L 100.000198 256.248444 L 29.869211 195.826370 L 120.755325 178.251190 L 90.207924 90.866753 L 177.713333 121.065956 L 194.926514 30.110584 L 255.627319 100.000443 L 315.993530 29.821362 L 333.641083 120.693451 L 421.001160 90.076469 L 390.871643 177.605865 L 481.840729 194.746689 L 412.000000 256.000000 Z
" /></g><g fill="none" stroke="#9C8066"  stroke-width="8.000000" fill-opacity="1.0"><path d="M381.600006, 256.000000L 437.986877 304.737366 L 364.789459 318.771118 L 389.271942 389.165863 L 318.857727 364.739441 L 304.882263 437.948029 L 256.100006 381.599945 L 207.407593 438.025635 L 193.315506 364.839386 L 122.940308 389.377930 L 147.310669 318.944305 L 74.090965 305.027130 L 130.400162 256.200012 L 73.935730 207.552505 L 147.110703 193.402237 L 122.516129 123.046570 L 192.969193 147.360794 L 206.828003 74.130066 L 255.699951 130.400360 L 304.302490 73.897202 L 318.511017 147.060883 L 388.847076 122.410286 L 364.588959 192.882660 L 437.830719 206.683228 L 381.600006 256.000000 Z
" /></g><g fill="none" stroke="#990022"  stroke-width="8.000000" fill-opacity="1.0"><path d="M351.200012, 256.000000L 393.939117 292.941071 L 338.458252 303.578125 L 357.015045 356.934631 L 303.643768 338.420349 L 293.050903 393.909637 L 256.075806 351.199982 L 219.168808 393.968506 L 208.487549 338.496094 L 155.145828 357.095398 L 173.617630 303.709381 L 118.119896 293.160706 L 160.800125 256.151611 L 118.002235 219.278656 L 173.466080 208.553284 L 154.824326 155.226379 L 208.225052 173.655640 L 218.729507 118.149536 L 255.772568 160.800278 L 292.611420 117.973030 L 303.380981 173.428314 L 356.693024 154.744095 L 338.306274 208.159470 L 393.820740 218.619766 L 351.200012 256.000000 Z
" /></g><g fill="none" stroke="#888822"  stroke-width="8.000000" fill-opacity="1.0"><path d="M320.799988, 256.000000L 349.891327 281.144745 L 312.127045 288.385101 L 324.758148 324.703400 L 288.429779 312.101257 L 281.219513 349.871277 L 256.051605 320.799988 L 230.930038 349.911316 L 223.659592 312.152802 L 187.351364 324.812836 L 199.924606 288.474457 L 162.148834 281.294250 L 191.200073 256.103210 L 162.068756 231.004807 L 199.821442 223.704330 L 187.132523 187.406189 L 223.480911 199.950470 L 230.631012 162.169022 L 255.845200 191.200180 L 280.920380 162.048874 L 288.250916 199.795746 L 324.538940 187.077927 L 312.023621 223.436279 L 349.810760 230.556320 L 320.799988 256.000000 Z
" /></g><g fill="none" stroke="#9C8066"  stroke-width="6.300000" fill-opacity="1.0"><path d="M290.399994, 256.000000L 305.843536 269.348450 L 285.795837 273.192108 L 292.501221 292.472168 L 273.215820 285.782135 L 269.388123 305.832886 L 256.027405 290.399994 L 242.691254 305.854156 L 238.831635 285.809509 L 219.556900 292.530273 L 226.231583 273.239532 L 206.177780 269.427826 L 221.600037 256.054779 L 206.135269 242.730942 L 226.176819 238.855392 L 219.440720 219.585999 L 238.736786 226.245316 L 242.532516 206.188492 L 255.917816 221.600098 L 269.229340 206.124710 L 273.120850 226.163177 L 292.384857 219.411728 L 285.740936 238.713089 L 305.800781 242.492859 L 290.399994 256.000000 Z
" /></g><g fill="none" stroke="#990022"  stroke-width="2.500000" fill-opacity="1.0"><path d="M260.000000, 256.000000L 261.795746 257.552155 L 259.464630 257.999084 L 260.244324 260.240936 L 258.001831 259.463043 L 257.556763 261.794525 L 256.003174 260.000000 L 254.452469 261.796997 L 254.003677 259.466217 L 251.762436 260.247711 L 252.538559 258.004608 L 250.206711 257.561371 L 252.000000 256.006378 L 250.201782 254.457092 L 252.532181 254.006439 L 251.748917 251.765808 L 253.992645 252.540146 L 254.434006 250.207962 L 255.990448 252.000015 L 257.538300 250.200546 L 257.990784 252.530594 L 260.230804 251.745544 L 259.458252 253.989899 L 261.790802 254.429398 L 260.000000 256.000000 Z
" /></g></svg>